<svg xmlns="http://www.w3.org/2000/svg" viewBox="0 0 32 48" shape-rendering="crispEdges">
  <rect width="32" height="48" fill="none"/>
  <rect x="12" y="2" width="8" height="2" fill="#1b1c22"/>
  <rect x="10" y="4" width="12" height="4" fill="#272a35"/>
  <rect x="8" y="8" width="16" height="6" fill="#34394a"/>
  <rect x="10" y="10" width="4" height="2" fill="#c9b59a"/>
  <rect x="18" y="10" width="4" height="2" fill="#c9b59a"/>
  <rect x="12" y="14" width="8" height="4" fill="#1d2028"/>
  <rect x="10" y="18" width="12" height="8" fill="#4e5a32"/>
  <rect x="8" y="20" width="2" height="10" fill="#2a2f3d"/>
  <rect x="22" y="20" width="2" height="10" fill="#2a2f3d"/>
  <rect x="6" y="24" width="20" height="10" fill="#2a313f"/>
  <rect x="4" y="26" width="4" height="12" fill="#1e2430"/>
  <rect x="24" y="26" width="4" height="12" fill="#1e2430"/>
  <rect x="14" y="26" width="4" height="8" fill="#7b4b35"/>
  <rect x="22" y="16" width="2" height="12" fill="#a8adb7"/>
  <rect x="24" y="16" width="2" height="10" fill="#d6d9df"/>
  <rect x="12" y="34" width="4" height="8" fill="#3f2d20"/>
  <rect x="16" y="34" width="4" height="8" fill="#473224"/>
  <rect x="10" y="42" width="4" height="4" fill="#181a1f"/>
  <rect x="18" y="42" width="4" height="4" fill="#181a1f"/>
  <rect x="12" y="6" width="8" height="2" fill="#4b5163"/>
  <rect x="8" y="30" width="4" height="2" fill="#394252"/>
  <rect x="20" y="30" width="4" height="2" fill="#394252"/>
</svg>
